<svg viewBox="0 0 491.08 89.18" xmlns="http://www.w3.org/2000/svg" xmlns:xlink="http://www.w3.org/1999/xlink" class="h-8 w-auto" aria-label="Escuteria" data-fg-dmg0=":0:/src/app/components/Logo.tsx:8:5:338:4312:e:svg:etxtetetxtetxtetxtetxtetxtetxtetxtetxte:1"><defs data-fg-dmg1=":0:/src/app/components/Logo.tsx:15:7:534:213:e:defs:e"><linearGradient id="lg-a" x1="0" y1="1" x2="0" y2="0" data-fg-dmg2=":0:/src/app/components/Logo.tsx:16:9:549:184:e:linearGradient:ete"><stop offset="0" stop-color="#494696" data-fg-dmg3=":0:/src/app/components/Logo.tsx:17:11:614:41:e:stop"></stop><stop offset="1" stop-color="#494696" data-fg-dmg4=":0:/src/app/components/Logo.tsx:18:11:666:41:e:stop"></stop></linearGradient></defs><polygon fill="#ef7a73" points="403.83 25.57 403.84 87.99 419.87 87.98 419.84 25.55 403.83 25.57" data-fg-dmg6=":0:/src/app/components/Logo.tsx:23:7:792:97:e:polygon"></polygon><path fill="#ef7a73" d="M418.38,2.26c-2.68-2.15-6.11-2.69-9.27-1.95-4.9,1.15-7.8,5.81-6.96,10.51.83,4.63,4.9,7.73,9.75,7.66,4.11-.06,7.63-2.08,9.08-5.72,1.42-3.56.7-7.85-2.6-10.5Z" data-fg-dmg7=":0:/src/app/components/Logo.tsx:24:7:896:180:e:path"></path><path fill="#ef7a73" d="M491.07,25.63l-15.65-.06-.34,8.39c-4.87-5.75-10.38-8.63-17.42-9.18-15.54-1.2-27.91,8.77-30.6,24.27-1.44,8.29-.63,16.51,2.96,24.07,5.19,10.94,16.44,16.83,28.43,15.44,6.78-.78,12.2-3.76,16.74-9.46l.28,8.9,15.62-.06V25.63ZM465.86,73.24c-4.6,2.2-10.33,2.06-14.63-.36-9.53-5.36-10.84-19.87-5.18-27.66,5.32-7.33,15.49-8.69,22.72-3.19,4.59,3.49,6.41,9,6.4,14.7-.02,6.79-2.77,13.38-9.3,16.51Z" data-fg-dmg9=":0:/src/app/components/Logo.tsx:27:7:1101:409:e:path"></path><path fill="url(#lg-a)" d="M211.92,88.51c8.16.72,15.47-1.97,20.89-8.23l.17,7.72,15.74-.02V25.91c-5.33-.42-10.29-.46-15.79-.32l-.12,36.3c-.01,3.31-1.48,6.95-3.77,9.22-4.95,4.91-13.17,5.34-18.68,1.11-3.06-2.35-4.9-6.29-4.92-10.27l-.2-36.38-15.69.06v39.63c.57,3.86,1.24,7.59,2.98,11.03,3.72,7.37,11.25,11.52,19.39,12.23Z" data-fg-dmg11=":0:/src/app/components/Logo.tsx:30:7:1534:320:e:path"></path><path fill="url(#lg-a)" d="M89.14,75.28c-3.16-1.02-4.84-3.82-6.15-6.98l-15.64-.07c.77,7.59,5.12,13.72,11.84,17.04,12.29,6.06,32.84,5,38.57-8.98,3.38-8.25-.11-16.84-7.86-20.84-8.6-4.44-14.8-3.92-22.53-7.76-1.59-.79-2.89-2.39-3.1-3.9-.22-1.58.55-3.51,1.87-4.64,1.89-1.61,4.41-1.64,6.84-1.79,5.36-.34,9.7,2.83,10.65,8.14l14.62-.02c-.11-8.61-5.21-15.95-13.5-18.92-8.52-3.06-18.08-2.59-26.17,1.49-5.79,2.92-9.41,8.42-9.71,14.79-.69,14.68,14.57,17.72,25.64,20.4,3.84.93,9.44,2.71,9.3,7.13-.18,5.68-9.9,7.24-14.67,4.92Z" data-fg-dmg13=":0:/src/app/components/Logo.tsx:33:7:1878:515:e:path"></path><path fill="url(#lg-a)" d="M165.04,87.15c9.13-3.22,15.95-10.53,18.06-20.3l-17.11.05c-1.44,4.75-5.27,7.48-10.19,8.07-6.92.98-12.99-2.79-15.05-9.26-1.93-6.05-1.82-12.62.29-18.57,2.24-6.31,8.15-9.67,14.63-8.92,5.13.6,9.1,3.64,10.59,8.67l16.92-.13c-2.65-12.86-13.13-21.03-25.62-21.95-13.91-1.15-26.84,4.78-31.98,18.45-3.42,9.11-3.32,18.93.39,27.92,6.52,15.79,23.71,20.33,39.05,15.96Z" data-fg-dmg15=":0:/src/app/components/Logo.tsx:36:7:2417:382:e:path"></path><path fill="url(#lg-a)" d="M262.27,71.68c.03,4.24,1.78,8.55,4.75,11.34,6.26,5.87,16.9,5.02,24.79,4.89l-.12-13.71-9.49-.09c-2.67-.03-4.13-2.43-4.13-4.84l.02-30.44h13.62s.05-13.16.05-13.16h-13.6s-.16-15.38-.16-15.38h-15.91s-.02,15.44-.02,15.44l-7.55.11-.06,12.96,7.59.08.21,32.82Z" data-fg-dmg17=":0:/src/app/components/Logo.tsx:39:7:2823:281:e:path"></path><path fill="url(#lg-a)" d="M378.9,61.65c0-3.43.15-6.77.61-10.1.74-5.31,4.79-9.34,10.14-9.85,2.79-.26,5.44-.22,8.38-.27v-16.48c-7.87-.55-14.37,3.4-18.9,9.6l-.18-6.92c-.01-.57-.04-1.43-.33-1.68-.22-.19-1.01-.43-1.33-.43l-14.12.05-.02,62.4h15.73s.03-26.32.03-26.32Z" data-fg-dmg19=":0:/src/app/components/Logo.tsx:42:7:3128:265:e:path"></path><path fill="url(#lg-a)" d="M335.7,87.33c9.3-2.57,16.34-9.67,18.95-19.01h-16.97c-2.29,4.83-6.71,7.06-11.61,7.17-8.27.46-15.1-5.55-15.33-13.94l44.98-.02c3.33-18.16-7.32-34.88-26.07-36.67-7.07-.67-14.16.36-20.46,3.92-13.23,7.48-16.89,23.84-13.46,37.67,4.49,18.11,22.72,25.65,39.99,20.88ZM326.16,37.7c7.3.45,13.44,5.23,13.86,13.1l-29.06.02c.54-7.84,7.44-13.59,15.2-13.12Z" data-fg-dmg21=":0:/src/app/components/Logo.tsx:45:7:3424:370:e:path"></path><path fill="url(#lg-a)" d="M31.89,88.72c3.9.05,7.66-.52,11.3-1.83l2.39-.86c1.42-.51,2.86-.53,4.31-.07l9.84,3.13c.64.21,1.38.07,1.77-.46.34-.46.33-1.12.09-1.67l-3.23-7.6c-.73-1.71-.43-3.4.59-4.89,1.35-1.96,2.37-4.06,3.22-6.27.08-.22.06-.58-.07-.72-.12-.13-.42-.26-.67-.26h-11.81c-1.37,0-2.62.39-3.64,1.19-.54.42-.91.95-1.34,1.49-1.72,2.21-3.86,3.98-6.48,5.07-4.32,1.79-9.26,1.48-13.35-.75-2.25-1.22-4.09-2.89-5.55-4.97-1.22-1.73-2.48-4.02-2.78-6.13-.07-.52.34-.97.9-.97h21.26s24.36,0,24.36,0c.61,0,.92-.51,1-1.01.69-4.49.56-9.04-.5-13.47-.6-2.54-1.57-4.92-2.75-7.22-3.69-7.2-9.94-12.75-17.57-15.5-9.5-3.42-19.92-2.29-28.39,3.23-6.55,4.26-11.37,10.79-13.51,18.34-1.53,5.39-1.69,11.17-.5,16.62,3.2,14.66,16.07,25.41,31.1,25.6ZM33.04,36.92c6.98.43,13.07,5.12,13.63,13.08l-29.46.04c1.03-8.34,7.93-13.56,15.83-13.12Z" data-fg-dmg23=":0:/src/app/components/Logo.tsx:48:7:3826:813:e:path"></path></svg>