<svg xmlns="http://www.w3.org/2000/svg" viewBox="0 0 64 64">
  <defs>
    <linearGradient id="bg" x1="8" y1="6" x2="58" y2="60" gradientUnits="userSpaceOnUse">
      <stop stop-color="#43286b"/>
      <stop offset="1" stop-color="#24133f"/>
    </linearGradient>
  </defs>
  <rect width="64" height="64" rx="15" fill="url(#bg)"/>
  <path fill="#fff" d="M13 35.2c0-11 7.4-18.7 18.5-18.7 10.6 0 18.1 7.4 18.1 18.1 0 1.5-.1 2.6-.3 3.7H25c.9 4.4 3.9 6.7 8.1 6.7 3.1 0 5.5-1.2 7.1-3.5l8 4.6c-3.3 5.2-8.6 8-15.3 8C21.1 54.1 13 46.7 13 35.2Zm24.8-4.1c-.7-3.9-3.2-6-6.7-6-3.6 0-5.8 2.1-6.5 6h13.2Z"/>
  <circle cx="50.5" cy="13.5" r="5.5" fill="#ef7a73"/>
</svg>
